<svg xmlns="http://www.w3.org/2000/svg"  viewBox="0 0 80 80" width="80px" height="80px"><path d="M 18.585938 10 L 48.585938 40 L 18.585938 70 L 35.414063 70 L 65.414063 40 L 35.414063 10 Z M 23.414063 12 L 34.585938 12 L 62.585938 40 L 34.585938 68 L 23.414063 68 L 51.414063 40 Z M 34 14 C 33.449219 14 33 14.449219 33 15 C 33 15.550781 33.449219 16 34 16 C 34.550781 16 35 15.550781 35 15 C 35 14.449219 34.550781 14 34 14 Z M 37 17 C 36.449219 17 36 17.449219 36 18 C 36 18.550781 36.449219 19 37 19 C 37.550781 19 38 18.550781 38 18 C 38 17.449219 37.550781 17 37 17 Z M 40 20 C 39.449219 20 39 20.449219 39 21 C 39 21.550781 39.449219 22 40 22 C 40.550781 22 41 21.550781 41 21 C 41 20.449219 40.550781 20 40 20 Z M 43 23 C 42.449219 23 42 23.449219 42 24 C 42 24.550781 42.449219 25 43 25 C 43.550781 25 44 24.550781 44 24 C 44 23.449219 43.550781 23 43 23 Z M 46 26 C 45.449219 26 45 26.449219 45 27 C 45 27.550781 45.449219 28 46 28 C 46.550781 28 47 27.550781 47 27 C 47 26.449219 46.550781 26 46 26 Z M 49 29 C 48.449219 29 48 29.449219 48 30 C 48 30.550781 48.449219 31 49 31 C 49.550781 31 50 30.550781 50 30 C 50 29.449219 49.550781 29 49 29 Z M 52 32 C 51.449219 32 51 32.449219 51 33 C 51 33.550781 51.449219 34 52 34 C 52.550781 34 53 33.550781 53 33 C 53 32.449219 52.550781 32 52 32 Z M 55 35 C 54.449219 35 54 35.449219 54 36 C 54 36.550781 54.449219 37 55 37 C 55.550781 37 56 36.550781 56 36 C 56 35.449219 55.550781 35 55 35 Z M 58 38 C 57.449219 38 57 38.449219 57 39 C 57 39.550781 57.449219 40 58 40 C 58.550781 40 59 39.550781 59 39 C 59 38.449219 58.550781 38 58 38 Z M 51 43 C 50.449219 43 50 43.449219 50 44 C 50 44.550781 50.449219 45 51 45 C 51.550781 45 52 44.550781 52 44 C 52 43.449219 51.550781 43 51 43 Z M 48 46 C 47.449219 46 47 46.449219 47 47 C 47 47.550781 47.449219 48 48 48 C 48.550781 48 49 47.550781 49 47 C 49 46.449219 48.550781 46 48 46 Z M 45 49 C 44.449219 49 44 49.449219 44 50 C 44 50.550781 44.449219 51 45 51 C 45.550781 51 46 50.550781 46 50 C 46 49.449219 45.550781 49 45 49 Z M 42 52 C 41.449219 52 41 52.449219 41 53 C 41 53.550781 41.449219 54 42 54 C 42.550781 54 43 53.550781 43 53 C 43 52.449219 42.550781 52 42 52 Z M 39 55 C 38.449219 55 38 55.449219 38 56 C 38 56.550781 38.449219 57 39 57 C 39.550781 57 40 56.550781 40 56 C 40 55.449219 39.550781 55 39 55 Z M 36 58 C 35.449219 58 35 58.449219 35 59 C 35 59.550781 35.449219 60 36 60 C 36.550781 60 37 59.550781 37 59 C 37 58.449219 36.550781 58 36 58 Z M 33 61 C 32.449219 61 32 61.449219 32 62 C 32 62.550781 32.449219 63 33 63 C 33.550781 63 34 62.550781 34 62 C 34 61.449219 33.550781 61 33 61 Z M 30 64 C 29.449219 64 29 64.449219 29 65 C 29 65.550781 29.449219 66 30 66 C 30.550781 66 31 65.550781 31 65 C 31 64.449219 30.550781 64 30 64 Z"/></svg>