<?xml version="1.0"?><svg xmlns="http://www.w3.org/2000/svg"  viewBox="0 0 80 80" width="80px" height="80px">    <path d="M 47.585938 10 L 17.585938 40 L 47.585938 70 L 64.414062 70 L 34.414062 40 L 64.414062 10 L 47.585938 10 z M 48.414062 12 L 59.585938 12 L 31.585938 40 L 32.292969 40.707031 L 59.585938 68 L 48.414062 68 L 20.414062 40 L 48.414062 12 z M 49 14 A 1 1 0 0 0 48 15 A 1 1 0 0 0 49 16 A 1 1 0 0 0 50 15 A 1 1 0 0 0 49 14 z M 46 17 A 1 1 0 0 0 45 18 A 1 1 0 0 0 46 19 A 1 1 0 0 0 47 18 A 1 1 0 0 0 46 17 z M 43 20 A 1 1 0 0 0 42 21 A 1 1 0 0 0 43 22 A 1 1 0 0 0 44 21 A 1 1 0 0 0 43 20 z M 40 23 A 1 1 0 0 0 39 24 A 1 1 0 0 0 40 25 A 1 1 0 0 0 41 24 A 1 1 0 0 0 40 23 z M 37 26 A 1 1 0 0 0 36 27 A 1 1 0 0 0 37 28 A 1 1 0 0 0 38 27 A 1 1 0 0 0 37 26 z M 34 29 A 1 1 0 0 0 33 30 A 1 1 0 0 0 34 31 A 1 1 0 0 0 35 30 A 1 1 0 0 0 34 29 z M 31 32 A 1 1 0 0 0 30 33 A 1 1 0 0 0 31 34 A 1 1 0 0 0 32 33 A 1 1 0 0 0 31 32 z M 28 35 A 1 1 0 0 0 27 36 A 1 1 0 0 0 28 37 A 1 1 0 0 0 29 36 A 1 1 0 0 0 28 35 z M 25 38 A 1 1 0 0 0 24 39 A 1 1 0 0 0 25 40 A 1 1 0 0 0 26 39 A 1 1 0 0 0 25 38 z M 32 43 A 1 1 0 0 0 31 44 A 1 1 0 0 0 32 45 A 1 1 0 0 0 33 44 A 1 1 0 0 0 32 43 z M 35 46 A 1 1 0 0 0 34 47 A 1 1 0 0 0 35 48 A 1 1 0 0 0 36 47 A 1 1 0 0 0 35 46 z M 38 49 A 1 1 0 0 0 37 50 A 1 1 0 0 0 38 51 A 1 1 0 0 0 39 50 A 1 1 0 0 0 38 49 z M 41 52 A 1 1 0 0 0 40 53 A 1 1 0 0 0 41 54 A 1 1 0 0 0 42 53 A 1 1 0 0 0 41 52 z M 44 55 A 1 1 0 0 0 43 56 A 1 1 0 0 0 44 57 A 1 1 0 0 0 45 56 A 1 1 0 0 0 44 55 z M 47 58 A 1 1 0 0 0 46 59 A 1 1 0 0 0 47 60 A 1 1 0 0 0 48 59 A 1 1 0 0 0 47 58 z M 50 61 A 1 1 0 0 0 49 62 A 1 1 0 0 0 50 63 A 1 1 0 0 0 51 62 A 1 1 0 0 0 50 61 z M 53 64 A 1 1 0 0 0 52 65 A 1 1 0 0 0 53 66 A 1 1 0 0 0 54 65 A 1 1 0 0 0 53 64 z"/></svg>