<svg xmlns="http://www.w3.org/2000/svg"  viewBox="0 0 100 100" width="100px" height="100px"><path d="M 88.921875 17.001953 A 2.0002 2.0002 0 0 0 88.855469 17.005859 C 62.138749 18.949916 35.526614 19.789379 9.0214844 19.5 A 2.0002 2.0002 0 0 0 7.0019531 21.421875 C 6.215673 41.45953 5.0393748 64.189849 6.5039062 85.636719 A 2.0002 2.0002 0 0 0 8.7910156 87.478516 C 35.823337 83.50805 65.683219 79.915499 94.494141 80 A 2.0002 2.0002 0 0 0 96.496094 77.882812 C 95.278035 57.218954 93.035878 37.353595 90.988281 18.78125 A 2.0002 2.0002 0 0 0 88.921875 17.001953 z M 86.484375 21.144531 C 76.717092 33.96408 66.047086 45.487906 54.533203 55.806641 C 53.58045 56.654521 52.185908 56.744169 51.132812 56.023438 C 45.866739 52.393339 40.729127 48.493183 35.691406 44.382812 A 1.0001 1.0001 0 0 0 35.421875 44.166016 C 27.551527 37.728046 19.932108 30.760595 12.455078 23.486328 C 37.043675 23.663673 61.719771 22.879199 86.484375 21.144531 z M 87.439453 23.191406 C 89.224671 39.394034 91.049161 56.449717 92.205078 74.105469 C 85.463897 68.476086 74.138101 61.168712 68.474609 58.119141 A 1.0001 1.0001 0 0 0 67.996094 57.994141 A 1.0001 1.0001 0 0 0 67.525391 59.880859 C 73.117621 62.892061 85.019476 70.638885 91.435547 76.066406 C 65.128269 76.218484 38.282518 79.248114 13.544922 82.777344 C 19.752745 77.312351 28.822848 69.197903 34.214844 63.699219 A 1.0001 1.0001 0 0 0 33.470703 61.990234 A 1.0001 1.0001 0 0 0 32.785156 62.300781 C 26.942437 68.259107 16.454953 77.570382 10.394531 82.880859 C 10.320863 81.625816 10.274034 80.358521 10.216797 79.095703 L 14.154297 75.210938 A 1.0001 1.0001 0 0 0 13.4375 73.490234 A 1.0001 1.0001 0 0 0 12.748047 73.789062 L 10.091797 76.408203 C 10.037888 74.93218 10.007154 73.449568 9.9726562 71.966797 L 12.65625 70.357422 A 1.0001 1.0001 0 0 0 12.167969 68.492188 A 1.0001 1.0001 0 0 0 11.626953 68.642578 L 9.9179688 69.667969 C 9.8970398 68.434276 9.8843833 67.200755 9.875 65.964844 L 11.933594 64.730469 A 1.0001 1.0001 0 0 0 11.447266 62.865234 A 1.0001 1.0001 0 0 0 10.90625 63.013672 L 9.8652344 63.638672 C 9.8364744 50.412986 10.383793 37.178622 10.882812 24.746094 C 13.132913 26.937395 15.396484 29.101478 17.677734 31.232422 L 14.65625 35.960938 A 1.0012502 1.0012502 0 1 0 16.34375 37.039062 L 19.160156 32.625 C 19.942237 33.348182 20.733239 34.054551 21.519531 34.769531 L 19.576172 40.167969 A 1.0001 1.0001 0 1 0 21.457031 40.845703 L 23.121094 36.224609 C 23.889546 36.91506 24.662754 37.597322 25.435547 38.279297 A 1.0001 1.0001 0 0 0 25.402344 38.376953 L 24.041016 43.009766 A 1.0001 1.0001 0 1 0 25.958984 43.572266 L 27.091797 39.726562 C 27.968534 40.489958 28.843822 41.256166 29.726562 42.007812 L 28.560547 45.212891 A 1.0001 1.0001 0 1 0 30.439453 45.896484 L 31.357422 43.373047 C 32.154861 44.042393 32.949285 44.717859 33.751953 45.376953 L 32.560547 48.658203 A 1.0001 1.0001 0 1 0 34.439453 49.341797 L 35.396484 46.707031 C 36.355205 47.482092 37.316553 48.250277 38.283203 49.009766 L 36.775391 53.158203 A 1.0001 1.0001 0 1 0 38.654297 53.841797 L 39.939453 50.306641 C 40.916063 51.060994 41.903474 51.795742 42.888672 52.533203 L 41.261719 56.126953 A 1.0001 1.0001 0 1 0 43.083984 56.951172 L 44.523438 53.767578 C 45.528039 54.506006 46.546517 55.215691 47.560547 55.935547 L 46.589844 58.080078 A 1.0001 1.0001 0 1 0 48.410156 58.90625 L 49.220703 57.117188 C 49.482056 57.299071 49.737998 57.491272 50 57.671875 A 1.0001 1.0001 0 0 0 50.003906 57.673828 C 51.808064 58.908584 54.234037 58.751317 55.865234 57.296875 A 1.0001 1.0001 0 0 0 55.867188 57.294922 C 67.223245 47.117596 77.768702 35.776835 87.439453 23.191406 z M 60.923828 26.996094 A 2.0002 2.0002 0 0 0 60.587891 27.042969 C 53.316402 28.57641 45.835855 28.730846 38.1875 28.009766 A 2.0002 2.0002 0 1 0 37.8125 31.990234 C 45.756145 32.739154 53.651598 32.593595 61.412109 30.957031 A 2.0002 2.0002 0 0 0 60.923828 26.996094 z M 78.806641 43.292969 C 78.178641 43.322969 77.692656 43.858328 77.722656 44.486328 C 77.752656 45.114328 78.286062 45.600313 78.914062 45.570312 C 79.542063 45.540312 80.028047 45.004953 79.998047 44.376953 C 79.968047 43.748953 79.434641 43.262969 78.806641 43.292969 z M 72.490234 48.882812 C 71.862234 48.911812 71.37625 49.446219 71.40625 50.074219 C 71.43525 50.702219 71.969656 51.188203 72.597656 51.158203 C 73.225656 51.128203 73.711641 50.592844 73.681641 49.964844 C 73.651641 49.335844 73.118234 48.850813 72.490234 48.882812 z M 77.818359 53.884766 C 77.190359 53.914766 76.704375 54.450125 76.734375 55.078125 C 76.764375 55.706125 77.299734 56.192109 77.927734 56.162109 C 78.555734 56.132109 79.041719 55.59675 79.011719 54.96875 C 78.981719 54.34075 78.447359 53.854766 77.818359 53.884766 z"/></svg>