<svg xmlns="http://www.w3.org/2000/svg"  viewBox="0 0 48 48" width="48px" height="48px" baseProfile="basic"><path fill="#f2ca00" d="M23.222,3.035c-0.455-0.106-0.921,0.121-1.123,0.541L16.54,15.146L3.116,17.07	c-0.737,0.106-1.329,0.614-1.547,1.325c-0.218,0.712-0.012,1.465,0.536,1.963l9.818,8.974L9.387,42.848	c-0.137,0.733,0.158,1.46,0.769,1.896c0.333,0.237,0.719,0.357,1.106,0.357c0.322,0,0.646-0.083,0.944-0.252l11.29-6.45	C23.808,38.221,24,37.889,24,37.53V4.01C24,3.543,23.677,3.139,23.222,3.035z"/><path fill="#324561" d="M36.75,45.106c-0.329,0-0.658-0.088-0.959-0.265l-12.287-7.014c-0.479-0.273-0.646-0.884-0.372-1.364	c0.273-0.479,0.881-0.648,1.364-0.372l12.109,6.912l-2.598-13.839c-0.064-0.34,0.053-0.689,0.308-0.923l10.079-9.213L30.657,17.05	c-0.33-0.048-0.615-0.257-0.759-0.558l-5.979-12.47c-0.553,0-0.96-0.419-0.96-0.972c0-0.552,0.488-0.971,1.041-0.971	c0.73,0,1.387,0.407,1.715,1.062l5.756,12.003l13.422,1.935c0.735,0.107,1.326,0.614,1.543,1.323	c0.218,0.709,0.01,1.463-0.542,1.966l-9.817,8.974l2.536,13.513c0.139,0.742-0.16,1.472-0.779,1.905	C37.505,44.99,37.128,45.106,36.75,45.106z M36.795,43.111L36.795,43.111C36.795,43.112,36.795,43.111,36.795,43.111z M44.605,19.06	h0.01H44.605z"/></svg>