<svg xmlns="http://www.w3.org/2000/svg"  viewBox="0 0 48 48" width="48px" height="48px"><path d="M 23.998047 2 A 1.0001 1.0001 0 0 0 23.119141 2.5390625 L 16.554688 15.15625 L 2.2753906 17.667969 A 1.0001 1.0001 0 0 0 1.75 19.367188 L 11.943359 29.328125 L 9.6953125 43.835938 A 1.0001 1.0001 0 0 0 11.150391 44.875 L 24.003906 38.091797 L 36.855469 44.884766 A 1.0001 1.0001 0 0 0 38.310547 43.847656 L 36.058594 29.333984 L 46.25 19.375 A 1.0001 1.0001 0 0 0 45.724609 17.673828 L 31.455078 15.15625 L 24.894531 2.5390625 A 1.0001 1.0001 0 0 0 23.998047 2 z M 24.005859 5.1679688 L 29.908203 16.517578 A 1.0001 1.0001 0 0 0 30.621094 17.041016 L 43.457031 19.306641 L 34.292969 28.263672 A 1.0001 1.0001 0 0 0 34.003906 29.130859 L 36.029297 42.185547 L 24.472656 36.076172 A 1.0001 1.0001 0 0 0 23.539062 36.076172 L 11.976562 42.177734 L 14 29.125 A 1.0001 1.0001 0 0 0 13.708984 28.255859 L 4.5429688 19.298828 L 17.386719 17.041016 A 1.0001 1.0001 0 0 0 18.101562 16.517578 L 24.005859 5.1679688 z"/></svg>